<svg xmlns="http://www.w3.org/2000/svg" viewBox="0 0 500 500"><!--Successful purchase--><g id="freepik--Floor--inject-1--inject-227"><ellipse id="freepik--floor--inject-1--inject-227" cx="250" cy="341.91" rx="235.59" ry="136.02" style="fill:#f5f5f5"></ellipse></g><g id="freepik--Shadows--inject-1--inject-227"><polygon id="freepik--Shadow--inject-1--inject-227" points="328.42 381.67 379.93 411.56 424.62 385.76 372.72 355.65 328.42 381.67" style="fill:#e0e0e0"></polygon><polygon id="freepik--shadow--inject-1--inject-227" points="375.96 367.82 425.96 396.74 470.64 370.94 420.25 341.8 375.96 367.82" style="fill:#e0e0e0"></polygon><ellipse id="freepik--shadow--inject-1--inject-227" cx="265.87" cy="385.93" rx="60.05" ry="36.46" style="fill:#e0e0e0"></ellipse><polygon id="freepik--shadow--inject-1--inject-227" points="152.37 408.82 209.24 375.99 140.18 336.12 83.31 368.95 152.37 408.82" style="fill:#e0e0e0"></polygon><polygon id="freepik--shadow--inject-1--inject-227" points="59.62 387.94 23.06 366.83 100.36 322.34 136.8 343.38 59.62 387.94" style="fill:#e0e0e0"></polygon></g><g id="freepik--Gifts--inject-1--inject-227"><g id="freepik--Box--inject-1--inject-227"><polygon points="59.75 384.1 139.33 338.23 139.33 263.35 59.75 309.21 59.75 384.1" style="fill:#EC775F"></polygon><polygon points="59.75 384.1 139.33 338.23 139.33 263.35 59.75 309.21 59.75 384.1" style="fill:#fff;opacity:0.75"></polygon><polygon points="38.13 296.73 59.75 309.21 139.33 263.35 117.72 250.87 38.13 296.73" style="fill:#EC775F"></polygon><polygon points="38.13 296.73 59.75 309.21 139.33 263.35 117.72 250.87 38.13 296.73" style="fill:#fff;opacity:0.9"></polygon><polygon points="38.13 296.73 59.75 309.21 59.75 384.1 38.13 371.62 38.13 296.73" style="fill:#EC775F"></polygon><polygon points="38.13 296.73 59.75 309.21 59.75 384.1 38.13 371.62 38.13 296.73" style="fill:#fff;opacity:0.6000000000000001"></polygon><polygon points="139.34 283.07 81.18 316.59 81.18 296.87 80.6 297.2 80.6 316.92 59.75 328.94 59.75 335.18 80.6 323.16 80.6 372.08 81.18 371.74 81.18 322.83 139.33 289.31 139.34 283.07" style="opacity:0.1"></polygon><polygon points="59.75 284.28 81.18 296.87 81.18 372.15 86.58 369.04 86.58 293.75 65.15 281.16 59.75 284.28" style="fill:#EC775F"></polygon><polygon points="86.58 318.7 81.18 321.82 81.18 322.82 86.58 319.7 86.58 318.7" style="opacity:0.1"></polygon><polygon points="38.13 316.46 38.13 322.7 59.75 335.18 59.75 328.94 38.13 316.46" style="opacity:0.1"></polygon><polygon points="38.13 315.45 59.74 327.93 139.33 282.07 139.33 288.31 59.74 334.17 38.13 321.69 38.13 315.45" style="fill:#EC775F"></polygon><polygon points="59.75 334.17 59.75 327.93 38.13 315.45 38.13 321.69 59.75 334.17" style="opacity:0.15"></polygon><polygon points="86.58 293.75 81.18 296.87 59.75 284.28 65.15 281.16 86.58 293.75" style="fill:#fff;opacity:0.5"></polygon><polygon points="58.99 284.72 80.6 297.2 81.18 296.87 59.75 284.28 58.99 284.72" style="opacity:0.1"></polygon></g><g id="freepik--box--inject-1--inject-227"><polygon points="99.55 348.79 156.11 381.44 156.11 403.21 99.55 370.56 99.55 348.79" style="fill:#EC775F"></polygon><polygon points="99.55 348.79 156.11 381.44 156.11 403.21 99.55 370.56 99.55 348.79" style="opacity:0.15"></polygon><polygon points="156.11 381.44 203.24 354.23 203.24 376 156.11 403.21 156.11 381.44" style="fill:#EC775F"></polygon><polygon points="203.24 354.23 146.68 321.58 99.55 348.79 156.11 381.44 203.24 354.23" style="fill:#EC775F"></polygon><polygon points="203.24 354.23 146.68 321.58 99.55 348.79 156.11 381.44 203.24 354.23" style="fill:#fff;opacity:0.5"></polygon></g><g id="freepik--rounded-box--inject-1--inject-227"><path d="M178.78,329.74H112.13v21.77h0c0,4.93,3.26,9.85,9.77,13.61,13,7.51,34.11,7.51,47.12,0,6.51-3.76,9.76-8.68,9.76-13.61h0Z" style="fill:#37474f"></path><path d="M145,370.75a54.53,54.53,0,0,0,12.71-1.33V341.56H145Z" style="fill:#EC775F"></path><path d="M145,370.75a54.53,54.53,0,0,0,12.71-1.33V341.56H145Z" style="opacity:0.15"></path><path d="M121.89,316.14c-13,7.52-13,19.7,0,27.21s34.11,7.51,47.12,0,13-19.69,0-27.21S134.9,308.63,121.89,316.14Z" style="fill:#455a64"></path><path d="M143.89,310.53a53.53,53.53,0,0,0-12.62,1.8L145,349a54,54,0,0,0,12.71-1.33Z" style="fill:#EC775F"></path></g></g><g id="freepik--Bags--inject-1--inject-227"><g id="freepik--Bag--inject-1--inject-227"><path d="M414.91,253.63c1.92-1.11,4.27-1,6.63.39,5.44,3.14,9.86,12.21,9.86,20.22v18.89a.86.86,0,0,1-1.72,0V274.24c0-7.46-4-15.87-9-18.73-1.83-1.06-3.53-1.2-4.91-.39-2,1.18-3.23,4.18-3.23,8.24v18.8a.86.86,0,0,1-1.71,0v-18.8C410.83,258.67,412.31,255.13,414.91,253.63Z" style="fill:#37474f"></path><polygon points="372.72 361.91 378.01 271.13 393.15 262.41 398.11 347.25 372.72 361.91" style="fill:#EC775F"></polygon><polygon points="372.72 361.91 378.01 271.13 393.15 262.41 398.11 347.25 372.72 361.91" style="fill:#fff;opacity:0.6000000000000001"></polygon><polygon points="372.72 361.91 378.01 271.13 393.15 262.41 398.11 347.25 372.72 361.91" style="opacity:0.05"></polygon><polygon points="446.35 293.13 451.31 377.96 398.11 347.25 393.15 262.41 446.35 293.13" style="fill:#EC775F"></polygon><polygon points="446.35 293.13 451.31 377.96 398.11 347.25 393.15 262.41 446.35 293.13" style="fill:#fff;opacity:0.30000000000000004"></polygon><polygon points="446.35 293.13 451.31 377.96 398.11 347.25 393.15 262.41 446.35 293.13" style="opacity:0.05"></polygon><polygon points="446.35 293.13 431.2 301.84 425.92 392.63 451.31 377.96 446.35 293.13" style="fill:#EC775F"></polygon><polygon points="446.35 293.13 431.2 301.84 425.92 392.63 451.31 377.96 446.35 293.13" style="fill:#fff;opacity:0.55"></polygon><polygon points="425.92 392.63 436.83 377.3 438.2 323.79 439.56 376.37 451.31 377.96 425.92 392.63" style="opacity:0.05"></polygon><path d="M372.72,361.91l53.2,30.72,5.28-90.79L378,271.13Zm40.75-61.24c0-1.22.85-1.72,1.9-1.11a4.23,4.23,0,0,1,1.9,3.29c0,1.21-.86,1.71-1.9,1.12A4.18,4.18,0,0,1,413.47,300.67Zm-18.86-11c0-1.23.85-1.72,1.9-1.12a4.21,4.21,0,0,1,1.9,3.29c0,1.21-.85,1.71-1.9,1.12A4.17,4.17,0,0,1,394.61,289.71Z" style="fill:#EC775F"></path><path d="M372.72,361.91l53.2,30.72,5.28-90.79L378,271.13Zm40.75-61.24c0-1.22.85-1.72,1.9-1.11a4.23,4.23,0,0,1,1.9,3.29c0,1.21-.86,1.71-1.9,1.12A4.18,4.18,0,0,1,413.47,300.67Zm-18.86-11c0-1.23.85-1.72,1.9-1.12a4.21,4.21,0,0,1,1.9,3.29c0,1.21-.85,1.71-1.9,1.12A4.17,4.17,0,0,1,394.61,289.71Z" style="fill:#fff;opacity:0.7000000000000001"></path><path d="M399.74,262.26c1.92-1.1,4.27-1,6.63.4,5.43,3.14,9.85,12.2,9.85,20.22v18.88a.86.86,0,1,1-1.71,0V282.88c0-7.47-4-15.87-9-18.74-1.83-1.05-3.53-1.19-4.92-.39-2,1.18-3.22,4.19-3.22,8.24v18.8a.86.86,0,0,1-1.72,0V272C395.65,267.31,397.14,263.76,399.74,262.26Z" style="fill:#455a64"></path></g><g id="freepik--bag--inject-1--inject-227"><path d="M370.32,286.16a5.64,5.64,0,0,1,5.79.34c4.74,2.74,8.6,10.65,8.6,17.65v16.48a.75.75,0,0,1-1.5,0V304.15c0-6.52-3.52-13.85-7.85-16.35a4.19,4.19,0,0,0-4.29-.35c-1.79,1-2.82,3.66-2.82,7.2v16.4a.75.75,0,0,1-1.5,0v-16.4C366.75,290.56,368.05,287.46,370.32,286.16Z" style="fill:#37474f"></path><polygon points="333.5 380.66 338.11 301.43 351.33 293.82 355.66 367.86 333.5 380.66" style="fill:#EC775F"></polygon><polygon points="333.5 380.66 338.11 301.43 351.33 293.82 355.66 367.86 333.5 380.66" style="opacity:0.2"></polygon><polygon points="397.75 320.63 402.09 394.67 355.66 367.86 351.33 293.82 397.75 320.63" style="fill:#EC775F"></polygon><polygon points="397.75 320.63 402.09 394.67 355.66 367.86 351.33 293.82 397.75 320.63" style="opacity:0.30000000000000004"></polygon><polygon points="397.75 320.63 384.54 328.23 379.92 407.46 402.09 394.67 397.75 320.63" style="fill:#EC775F"></polygon><polygon points="397.75 320.63 384.54 328.23 379.92 407.46 402.09 394.67 397.75 320.63" style="opacity:0.15"></polygon><polygon points="379.92 407.46 389.45 394.09 390.64 347.39 391.83 393.28 402.09 394.67 379.92 407.46" style="opacity:0.15"></polygon><path d="M333.5,380.66l46.42,26.8,4.62-79.23-46.43-26.8Zm35.56-53.44c0-1.07.74-1.51,1.66-1a3.68,3.68,0,0,1,1.65,2.87c0,1.06-.74,1.5-1.65,1A3.63,3.63,0,0,1,369.06,327.22Zm-16.46-9.58c0-1.06.74-1.5,1.66-1a3.65,3.65,0,0,1,1.66,2.87c0,1.06-.74,1.49-1.66,1A3.62,3.62,0,0,1,352.6,317.64Z" style="fill:#EC775F"></path><path d="M357.07,293.69a5.66,5.66,0,0,1,5.79.35c4.75,2.73,8.61,10.65,8.61,17.64v16.48a.75.75,0,1,1-1.5,0V311.68c0-6.51-3.53-13.85-7.86-16.35a4.17,4.17,0,0,0-4.29-.34c-1.78,1-2.81,3.65-2.81,7.19v16.41a.75.75,0,0,1-1.5,0V302.18C353.51,298.09,354.81,295,357.07,293.69Z" style="fill:#455a64"></path></g></g></svg>